<?xml version="1.0" standalone="no"?>
<!DOCTYPE svg PUBLIC "-//W3C//DTD SVG 20010904//EN"
 "http://www.w3.org/TR/2001/REC-SVG-20010904/DTD/svg10.dtd">
<svg version="1.0" xmlns="http://www.w3.org/2000/svg"
 width="400.000000pt" height="400.000000pt" viewBox="0 0 400.000000 400.000000"
 preserveAspectRatio="xMidYMid meet">
<metadata>
Created by potrace 1.14, written by Peter Selinger 2001-2017
</metadata>
<g transform="translate(0.000000,400.000000) scale(0.100000,-0.100000)"
fill="#000000" stroke="none">
<path d="M1941 3558 c-148 -39 -226 -213 -155 -349 16 -32 61 -81 89 -96 18
-10 18 -15 -8 -139 -15 -71 -29 -140 -31 -154 -3 -14 -7 -36 -10 -50 -3 -14
-33 -164 -67 -335 -34 -170 -65 -313 -69 -318 -6 -7 -65 127 -240 543 -33 80
-65 154 -70 165 -43 91 -58 135 -46 135 7 0 32 13 54 30 128 93 140 277 25
387 -70 66 -159 85 -253 53 -207 -70 -226 -360 -30 -460 22 -11 46 -20 55 -20
11 0 15 -6 10 -19 -3 -10 -8 -83 -10 -162 -13 -415 -17 -573 -18 -666 -2 -80
-5 -99 -14 -91 -7 6 -13 15 -13 20 0 5 -5 14 -11 21 -5 7 -57 89 -114 182 -57
94 -109 175 -115 182 -5 7 -10 14 -10 17 0 9 -65 111 -72 114 -5 2 -8 9 -9 15
0 7 -17 37 -38 67 l-37 55 28 46 c72 119 55 272 -42 367 -95 93 -233 89 -331
-9 -174 -174 -77 -482 154 -488 39 -1 62 -45 77 -144 6 -45 14 -98 16 -117 3
-19 7 -52 10 -72 2 -20 6 -49 8 -65 3 -15 10 -68 16 -118 6 -49 13 -97 15
-105 2 -8 6 -40 9 -70 12 -114 17 -148 36 -238 33 -151 57 -189 192 -305 60
-51 92 -127 78 -179 -16 -54 -40 -98 -107 -194 -69 -100 -91 -151 -100 -231
-8 -75 2 -114 43 -166 32 -41 45 -49 147 -85 62 -22 135 -43 162 -46 28 -4 79
-11 115 -16 172 -24 419 -29 680 -15 85 4 184 9 220 10 81 3 265 15 305 19
145 17 230 24 355 30 127 6 154 12 201 42 44 27 62 61 77 141 12 66 -9 151
-75 306 -40 93 -48 122 -47 172 1 94 23 133 157 279 38 41 63 92 72 143 4 24
6 45 6 48 -1 3 6 20 16 38 9 17 18 42 19 53 3 31 14 94 19 118 3 12 7 35 10
51 3 17 9 55 15 85 5 30 12 72 16 94 3 21 8 48 10 60 2 11 11 62 19 111 9 50
19 110 24 135 5 25 14 72 20 105 6 33 14 74 17 90 3 17 6 35 6 42 1 6 15 11
32 10 138 -4 258 107 269 248 4 42 -26 140 -49 163 -8 7 -19 21 -26 31 -7 10
-35 31 -63 47 -42 24 -60 28 -120 28 -79 -1 -131 -22 -185 -76 -78 -77 -96
-201 -46 -301 32 -63 36 -51 -58 -193 -68 -104 -178 -272 -286 -441 -40 -62
-75 -113 -79 -113 -3 0 -7 156 -9 348 -1 191 -4 394 -5 451 l-3 103 41 18
c160 69 200 279 75 399 -55 52 -87 65 -165 65 -108 0 -181 -47 -224 -145 -44
-98 -17 -209 67 -280 l39 -32 -152 -376 c-83 -207 -155 -385 -160 -396 -10
-23 -12 -31 -14 -46 -2 -23 -19 3 -24 38 -3 21 -8 47 -11 58 -12 54 -57 252
-60 270 -2 11 -16 72 -31 135 -15 63 -29 129 -32 145 -2 17 -15 73 -28 125
-13 52 -26 116 -30 142 l-7 46 44 20 c205 92 185 394 -32 459 -41 13 -81 13
-129 1z"/>
</g>
</svg>
